<svg width="18" height="18" viewBox="0 0 18 18" fill="none" xmlns="http://www.w3.org/2000/svg">
<path d="M8.22078 7.05195H9.77922V13.2857H8.22078V7.05195ZM8 4.93507C8 4.68398 8.09091 4.46753 8.27273 4.28571C8.4632 4.09524 8.7013 4 8.98701 4C9.27273 4 9.51082 4.09091 9.7013 4.27273C9.90043 4.44589 10 4.66667 10 4.93507C10 5.20346 9.90043 5.42857 9.7013 5.61039C9.51082 5.78355 9.27273 5.87013 8.98701 5.87013C8.7013 5.87013 8.4632 5.77922 8.27273 5.5974C8.09091 5.40693 8 5.18615 8 4.93507Z" fill="#3A3A3A"/>
<rect x="0.5" y="0.5" width="17" height="17" rx="8.5" stroke="#3A3A3A"/>
</svg>
