<svg width="19" height="18" viewBox="0 0 19 18" fill="none" xmlns="http://www.w3.org/2000/svg">
<path d="M8.72078 7.05195H10.2792V13.2857H8.72078V7.05195ZM8.5 4.93507C8.5 4.68398 8.59091 4.46753 8.77273 4.28571C8.9632 4.09524 9.2013 4 9.48701 4C9.77273 4 10.0108 4.09091 10.2013 4.27273C10.4004 4.44589 10.5 4.66667 10.5 4.93507C10.5 5.20346 10.4004 5.42857 10.2013 5.61039C10.0108 5.78355 9.77273 5.87013 9.48701 5.87013C9.2013 5.87013 8.9632 5.77922 8.77273 5.5974C8.59091 5.40693 8.5 5.18615 8.5 4.93507Z" fill="#898787"/>
<rect x="1" y="0.5" width="17" height="17" rx="8.5" stroke="#898787"/>
</svg>
