<svg width="24" height="25" viewBox="0 0 24 25" fill="none" xmlns="http://www.w3.org/2000/svg">
<path d="M21.6 0.549805H2.4C1.76429 0.552437 1.15537 0.806139 0.705852 1.25566C0.256334 1.70517 0.00263237 2.3141 0 2.9498L0 22.1498C0.00263237 22.7855 0.256334 23.3944 0.705852 23.844C1.15537 24.2935 1.76429 24.5472 2.4 24.5498H21.6C22.2357 24.5472 22.8446 24.2935 23.2941 23.844C23.7437 23.3944 23.9974 22.7855 24 22.1498V2.9498C23.9974 2.3141 23.7437 1.70517 23.2941 1.25566C22.8446 0.806139 22.2357 0.552437 21.6 0.549805ZM7.045 15.0148C7.55422 15.2469 8.13476 15.2671 8.65892 15.0712C9.18309 14.8752 9.60793 14.479 9.84 13.9698H11.5C11.286 14.8464 10.7583 15.6142 10.0165 16.1281C9.27479 16.6419 8.37047 16.8662 7.47459 16.7584C6.57871 16.6506 5.75336 16.2184 5.15462 15.5433C4.55588 14.8682 4.22524 13.9971 4.22524 13.0948C4.22524 12.1925 4.55588 11.3214 5.15462 10.6463C5.75336 9.97125 6.57871 9.53897 7.47459 9.43121C8.37047 9.32345 9.27479 9.5477 10.0165 10.0615C10.7583 10.5754 11.286 11.3432 11.5 12.2198H9.84C9.69869 11.9097 9.48439 11.6385 9.2154 11.4293C8.94642 11.22 8.63077 11.0791 8.29544 11.0184C7.96012 10.9578 7.61509 10.9793 7.28988 11.081C6.96466 11.1828 6.66893 11.3618 6.42797 11.6028C6.18701 11.8437 6.008 12.1395 5.90624 12.4647C5.80448 12.7899 5.783 13.1349 5.84364 13.4702C5.90428 13.8056 6.04524 14.1212 6.25445 14.3902C6.46366 14.6592 6.73491 14.8735 7.045 15.0148ZM18.39 15.8598C18.0761 16.13 17.7174 16.3432 17.33 16.4898C16.7762 16.7048 16.1786 16.7825 15.5883 16.7163C14.998 16.6502 14.4324 16.4421 13.94 16.1098V16.4898H12.43V5.9198H13.93V10.0298C14.4655 9.66779 15.0856 9.45073 15.73 9.3998H16C16.7508 9.39863 17.4839 9.62778 18.1004 10.0563C18.717 10.4849 19.1872 11.0922 19.4477 11.7964C19.7082 12.5005 19.7465 13.2677 19.5574 13.9943C19.3682 14.7209 18.9608 15.372 18.39 15.8598ZM18.167 13.0938C18.1731 13.3739 18.1232 13.6524 18.0202 13.9129C17.9173 14.1735 17.7633 14.4109 17.5674 14.6111C17.3714 14.8114 17.1375 14.9705 16.8792 15.0791C16.621 15.1877 16.3437 15.2437 16.0635 15.2437C15.7833 15.2437 15.506 15.1877 15.2478 15.0791C14.9895 14.9705 14.7556 14.8114 14.5596 14.6111C14.3637 14.4109 14.2097 14.1735 14.1068 13.9129C14.0038 13.6524 13.9539 13.3739 13.96 13.0938C13.972 12.5439 14.1989 12.0205 14.5921 11.6358C14.9852 11.2511 15.5134 11.0357 16.0635 11.0357C16.6136 11.0357 17.1418 11.2511 17.5349 11.6358C17.9281 12.0205 18.155 12.5439 18.167 13.0938Z" fill="#3A3A3A"/>
</svg>
