<svg width="23" height="16" viewBox="0 0 23 16" fill="none" xmlns="http://www.w3.org/2000/svg">
<path fill-rule="evenodd" clip-rule="evenodd" d="M2.1983 1.23077V12.3077H3.48164C3.76475 10.9032 4.99782 9.84615 6.47607 9.84615C7.95433 9.84615 9.1874 10.9032 9.47051 12.3077H14.4205V1.23077H2.1983ZM9.47051 13.5385H15.0316C15.3691 13.5385 15.6427 13.2629 15.6427 12.9231V0.615385C15.6427 0.275517 15.3691 0 15.0316 0H1.58719C1.24968 0 0.976074 0.275517 0.976074 0.615385V12.9231C0.976074 13.2629 1.24968 13.5385 1.58719 13.5385H3.48164C3.76475 14.9429 4.99782 16 6.47607 16C7.95433 16 9.1874 14.9429 9.47051 13.5385Z" fill="#3A3A3A"/>
<path fill-rule="evenodd" clip-rule="evenodd" d="M15.6426 4.92309V12.3077H15.7038C15.9869 10.9033 17.2199 9.84617 18.6982 9.84617C20.1764 9.84617 21.4095 10.9033 21.6926 12.3077H21.7537V8.57252L18.1863 4.92309H15.6426ZM21.6926 13.5385C21.4095 14.9429 20.1764 16 18.6982 16C17.2199 16 15.9869 14.9429 15.7038 13.5385H15.0315C14.694 13.5385 14.4204 13.263 14.4204 12.9231V4.30771C14.4204 3.96784 14.694 3.69232 15.0315 3.69232H18.4422C18.606 3.69232 18.7629 3.75849 18.8777 3.876L22.8004 7.88875C22.9129 8.00387 22.976 8.15893 22.976 8.32046V12.9231C22.976 13.263 22.7024 13.5385 22.3649 13.5385H21.6926Z" fill="#3A3A3A"/>
</svg>
