<svg width="24" height="25" viewBox="0 0 24 25" fill="none" xmlns="http://www.w3.org/2000/svg">
<path d="M12 0.549761C8.74101 0.549761 8.33236 0.563576 7.05243 0.621975C5.77517 0.680231 4.90284 0.883104 4.13954 1.17972C3.35043 1.48639 2.68123 1.89671 2.01409 2.56383C1.34697 3.23095 0.936645 3.90021 0.629981 4.68931C0.333346 5.4526 0.130491 6.32493 0.0721958 7.60219C0.0138065 8.88212 0 9.29077 0 12.5498C0 15.8088 0.0138065 16.2174 0.0721958 17.4974C0.130491 18.7746 0.333346 19.647 0.629981 20.4102C0.936645 21.1994 1.34697 21.8686 2.01409 22.5357C2.68123 23.2029 3.35043 23.6132 4.13954 23.9198C4.90284 24.2165 5.77517 24.4193 7.05243 24.4776C8.33236 24.536 8.74101 24.5498 12 24.5498C15.259 24.5498 15.6677 24.536 16.9476 24.4776C18.2249 24.4193 19.0972 24.2165 19.8605 23.9198C20.6496 23.6132 21.3188 23.2029 21.986 22.5357C22.6531 21.8686 23.0634 21.1994 23.3701 20.4102C23.6667 19.647 23.8696 18.7746 23.9278 17.4974C23.9862 16.2174 24 15.8088 24 12.5498C24 9.29077 23.9862 8.88212 23.9278 7.60219C23.8696 6.32493 23.6667 5.4526 23.3701 4.68931C23.0634 3.90021 22.6531 3.23095 21.986 2.56383C21.3188 1.89671 20.6496 1.48639 19.8605 1.17972C19.0972 0.883104 18.2249 0.680231 16.9476 0.621975C15.6677 0.563576 15.259 0.549761 12 0.549761ZM12 2.71192C15.2042 2.71192 15.5837 2.72416 16.8491 2.7819C18.0191 2.83525 18.6544 3.03074 19.0773 3.19508C19.6374 3.41277 20.0372 3.6728 20.4571 4.0927C20.877 4.51264 21.137 4.91238 21.3547 5.47252C21.5191 5.89536 21.7146 6.53075 21.7679 7.70074C21.8256 8.9661 21.8379 9.34565 21.8379 12.5498C21.8379 15.7539 21.8256 16.1335 21.7679 17.3988C21.7146 18.5688 21.5191 19.2042 21.3547 19.6271C21.137 20.1872 20.877 20.5869 20.4571 21.0068C20.0372 21.4268 19.6374 21.6868 19.0773 21.9045C18.6544 22.0688 18.0191 22.2643 16.8491 22.3177C15.5839 22.3754 15.2044 22.3876 12 22.3876C8.79565 22.3876 8.41619 22.3754 7.15098 22.3177C5.98099 22.2643 5.3456 22.0688 4.92275 21.9045C4.36262 21.6868 3.96288 21.4268 3.54298 21.0068C3.12307 20.5869 2.863 20.1872 2.64532 19.6271C2.48098 19.2042 2.28551 18.5688 2.23213 17.3988C2.17439 16.1335 2.16216 15.7539 2.16216 12.5498C2.16216 9.34565 2.17439 8.9661 2.23213 7.70074C2.28551 6.53075 2.48098 5.89536 2.64532 5.47252C2.863 4.91238 3.12305 4.51264 3.54296 4.09274C3.96288 3.6728 4.36262 3.41277 4.92275 3.19508C5.3456 3.03074 5.98099 2.83525 7.15098 2.7819C8.41634 2.72416 8.79589 2.71192 12 2.71192Z" fill="#3A3A3A"/>
<path d="M12.0006 16.5488C9.7914 16.5488 8.00054 14.7579 8.00054 12.5488C8.00054 10.3396 9.7914 8.54875 12.0006 8.54875C14.2097 8.54875 16.0006 10.3396 16.0006 12.5488C16.0006 14.7579 14.2097 16.5488 12.0006 16.5488ZM12.0006 6.38659C8.59726 6.38659 5.83838 9.14547 5.83838 12.5488C5.83838 15.9521 8.59726 18.7109 12.0006 18.7109C15.4039 18.7109 18.1627 15.9521 18.1627 12.5488C18.1627 9.14547 15.4039 6.38659 12.0006 6.38659Z" fill="#3A3A3A"/>
<path d="M19.8458 6.14498C19.8458 6.94028 19.2011 7.58496 18.4058 7.58496C17.6106 7.58496 16.9658 6.94028 16.9658 6.14498C16.9658 5.34968 17.6106 4.70495 18.4058 4.70495C19.2011 4.70495 19.8458 5.34968 19.8458 6.14498Z" fill="#3A3A3A"/>
</svg>
