<svg width="24" height="25" viewBox="0 0 24 25" fill="none" xmlns="http://www.w3.org/2000/svg">
<path fill-rule="evenodd" clip-rule="evenodd" d="M24 12.5498C24 19.1772 18.6274 24.5498 12 24.5498C5.37258 24.5498 0 19.1772 0 12.5498C0 5.92239 5.37258 0.549805 12 0.549805C18.6274 0.549805 24 5.92239 24 12.5498ZM8.86485 6.71921C8.86485 7.46626 8.29603 8.07084 7.40649 8.07084C6.55161 8.07084 5.98279 7.46626 6.0004 6.71921C5.98279 5.93585 6.5516 5.34888 7.42353 5.34888C8.29602 5.34888 8.8478 5.93585 8.86485 6.71921ZM6.07192 17.8398V9.13861H8.77627V17.8398H6.07192ZM10.8722 9.14084C10.9079 9.90605 10.9437 10.8313 10.9437 11.9167H10.9448V17.8425H13.6492V12.8244C13.6492 12.5747 13.6844 12.326 13.7559 12.1478C13.9336 11.6499 14.3781 11.1339 15.1257 11.1339C16.1043 11.1339 16.4955 11.8986 16.4955 13.0202V17.8425H19.1998V12.6814C19.1998 10.12 17.8653 8.94556 16.0862 8.94556C14.6449 8.94556 13.7553 9.78118 13.3994 10.3329H13.346L13.2212 9.14084H10.8722Z" fill="#3A3A3A"/>
</svg>
