<svg width="34" height="34" viewBox="0 0 34 34" fill="none" xmlns="http://www.w3.org/2000/svg">
<path fill-rule="evenodd" clip-rule="evenodd" d="M16.9998 34C26.3887 34 34 26.3888 34 17C34 7.61122 26.3887 0 16.9998 0C7.61091 0 0 7.61122 0 17C0 26.3888 7.61091 34 16.9998 34ZM6.16121 15.6442H7.44022V21.4071H8.98631V15.6442H10.7435V14.3864H8.98631V13.5076C8.98631 12.9103 9.31656 12.6572 9.72437 12.6572C9.93508 12.6572 10.1602 12.7348 10.3569 12.8399L10.8207 11.6101C10.4624 11.4414 10.0406 11.329 9.59084 11.329C8.45935 11.329 7.45422 12.0387 7.45422 13.3741V14.3864H6.16121V15.6442ZM14.3045 15.5103C15.3724 15.5103 15.9205 16.2271 16.0121 17.2742H12.5892C12.716 16.2975 13.2078 15.5103 14.3045 15.5103ZM14.3185 14.252C12.0483 14.252 11.0012 16.0796 11.0012 17.9279C11.0012 19.8182 12.0975 21.533 14.4308 21.533C15.5903 21.533 16.4831 21.1468 17.2491 20.3244L16.2088 19.4316C15.703 19.9869 15.1265 20.1769 14.4376 20.1769C13.2501 20.1769 12.688 19.4176 12.5892 18.3917H17.4318C17.4598 18.2861 17.481 18.0123 17.481 17.7592C17.481 16.1779 16.7218 14.252 14.3185 14.252ZM17.9437 14.386H19.5462L20.818 19.1722L22.2309 14.386H23.5379L24.9505 19.1582L26.2299 14.386H27.8392L25.7237 21.4071H24.3464L22.8914 16.4594L21.4157 21.4071H20.0379L17.9437 14.386ZM28.3136 21.403C28.8774 21.403 29.3344 20.946 29.3344 20.3823C29.3344 19.8185 28.8774 19.3616 28.3136 19.3616C27.7503 19.3616 27.2933 19.8185 27.2933 20.3823C27.2933 20.946 27.7503 21.403 28.3136 21.403Z" fill="#3A3A3A"/>
</svg>
