<svg width="20" height="14" viewBox="0 0 20 14" fill="none" xmlns="http://www.w3.org/2000/svg">
<path d="M19.25 1.3125V0.8125H18.75H1.25H0.75V1.3125V11.8125V12.3125H1.25H18.75H19.25V11.8125V1.3125ZM0.5 1.3125C0.5 0.8405 0.858495 0.5 1.25 0.5H18.75C19.1415 0.5 19.5 0.8405 19.5 1.3125V11.8125C19.5 12.2845 19.1415 12.625 18.75 12.625H1.25C0.858494 12.625 0.5 12.2845 0.5 11.8125V1.3125Z" fill="#3A3A3A" stroke="#3A3A3A"/>
<path fill-rule="evenodd" clip-rule="evenodd" d="M8.69823 9.05353L0.761719 1.91067L1.73791 0.714844L9.67442 7.8577C9.86166 8.02622 10.138 8.02622 10.3252 7.8577L18.2617 0.714844L19.2379 1.91067L11.3014 9.05353C10.5524 9.72761 9.44721 9.72761 8.69823 9.05353Z" fill="#3A3A3A"/>
</svg>
