<svg width="42" height="42" viewBox="0 0 42 42" fill="none" xmlns="http://www.w3.org/2000/svg">
<rect x="0.5" y="0.5" width="41" height="41" rx="20.5" fill="#FEFEFE"/>
<path d="M17.291 14.476C17.0743 14.2507 16.8447 14.0817 16.602 13.969C16.368 13.8477 16.0863 13.787 15.757 13.787C15.4363 13.787 15.1547 13.8477 14.912 13.969C14.678 14.0817 14.4787 14.242 14.314 14.45C14.158 14.6493 14.0367 14.8833 13.95 15.152C13.872 15.412 13.833 15.685 13.833 15.971C13.833 16.257 13.8807 16.53 13.976 16.79C14.0713 17.0413 14.2057 17.2623 14.379 17.453C14.5523 17.6437 14.7603 17.7953 15.003 17.908C15.2457 18.012 15.5187 18.064 15.822 18.064C16.1513 18.064 16.433 18.0077 16.667 17.895C16.901 17.7737 17.1177 17.6003 17.317 17.375L18.149 18.207C17.8457 18.545 17.4903 18.7877 17.083 18.935C16.6843 19.0823 16.2597 19.156 15.809 19.156C15.3323 19.156 14.8947 19.078 14.496 18.922C14.106 18.766 13.768 18.5493 13.482 18.272C13.196 17.986 12.975 17.648 12.819 17.258C12.663 16.8593 12.585 16.4217 12.585 15.945C12.585 15.4683 12.663 15.0307 12.819 14.632C12.975 14.2333 13.1917 13.891 13.469 13.605C13.755 13.319 14.093 13.098 14.483 12.942C14.8817 12.7773 15.3237 12.695 15.809 12.695C16.2597 12.695 16.6887 12.7773 17.096 12.942C17.512 13.098 17.8717 13.3407 18.175 13.67L17.291 14.476ZM19.1555 12.838H20.2475V13.8H20.2735C20.2995 13.7133 20.3645 13.605 20.4685 13.475C20.5812 13.345 20.7198 13.2237 20.8845 13.111C21.0578 12.9897 21.2572 12.89 21.4825 12.812C21.7165 12.7253 21.9722 12.682 22.2495 12.682C22.7088 12.682 23.0945 12.7773 23.4065 12.968C23.7185 13.1587 23.9742 13.4447 24.1735 13.826C24.3728 13.4447 24.6545 13.1587 25.0185 12.968C25.3825 12.7773 25.7508 12.682 26.1235 12.682C26.6002 12.682 26.9902 12.76 27.2935 12.916C27.5968 13.072 27.8352 13.28 28.0085 13.54C28.1818 13.7913 28.2988 14.0817 28.3595 14.411C28.4288 14.7317 28.4635 15.0653 28.4635 15.412V19H27.2935V15.568C27.2935 15.334 27.2762 15.1087 27.2415 14.892C27.2155 14.6753 27.1548 14.4847 27.0595 14.32C26.9642 14.1553 26.8298 14.0253 26.6565 13.93C26.4832 13.826 26.2535 13.774 25.9675 13.774C25.4042 13.774 25.0012 13.9473 24.7585 14.294C24.5158 14.6407 24.3945 15.087 24.3945 15.633V19H23.2245V15.776C23.2245 15.4813 23.2072 15.2127 23.1725 14.97C23.1465 14.7273 23.0858 14.5193 22.9905 14.346C22.9038 14.164 22.7738 14.0253 22.6005 13.93C22.4358 13.826 22.2105 13.774 21.9245 13.774C21.7165 13.774 21.5128 13.8173 21.3135 13.904C21.1228 13.982 20.9538 14.1033 20.8065 14.268C20.6592 14.4327 20.5422 14.645 20.4555 14.905C20.3688 15.1563 20.3255 15.4553 20.3255 15.802V19H19.1555V12.838Z" fill="#3A3A3A"/>
<rect x="10.5" y="24.5002" width="21" height="6.33333" rx="0.5" stroke="#3A3A3A"/>
<path d="M13.6665 30.4167V27.6667" stroke="#3A3A3A" stroke-width="0.916667"/>
<path d="M17.333 30.4167L17.333 26.75" stroke="#3A3A3A" stroke-width="0.916667"/>
<path d="M21 30.4167V27.6667" stroke="#3A3A3A" stroke-width="0.916667"/>
<path d="M24.6665 30.4167L24.6665 26.75" stroke="#3A3A3A" stroke-width="0.916667"/>
<path d="M28.333 30.4167V27.6667" stroke="#3A3A3A" stroke-width="0.916667"/>
<rect x="0.5" y="0.5" width="41" height="41" rx="20.5" stroke="#3A3A3A"/>
</svg>
