<svg width="19" height="16" viewBox="0 0 19 16" fill="none" xmlns="http://www.w3.org/2000/svg">
<path d="M16.3038 5.67742C16.6572 5.5626 16.8533 5.18157 16.7088 4.83919C16.1499 3.51409 15.2385 2.36204 14.0682 1.51174C12.7158 0.529194 11.0871 1.99336e-08 9.41555 0C7.74395 -1.99336e-08 6.11526 0.529194 4.76291 1.51174C3.59257 2.36204 2.68118 3.51409 2.12226 4.83919C1.97785 5.18157 2.1739 5.5626 2.52731 5.67742V5.67742C2.88071 5.79225 3.25713 5.59699 3.40749 5.25718C3.87459 4.20148 4.61351 3.28358 5.55386 2.60038C6.67631 1.78487 8.02812 1.34564 9.41555 1.34564C10.803 1.34564 12.1548 1.78487 13.2772 2.60038C14.2176 3.28358 14.9565 4.20148 15.4236 5.25718C15.574 5.59699 15.9504 5.79225 16.3038 5.67742V5.67742Z" fill="#3A3A3A"/>
<path d="M13.2603 5.37283L16.8239 6.00118L17.4522 2.43762" stroke="#3A3A3A" stroke-width="1.30022" stroke-linecap="round" stroke-linejoin="round"/>
<path d="M2.64787 10.1537C2.29447 10.2685 2.09841 10.6495 2.24282 10.9919C2.80175 12.317 3.71313 13.469 4.88347 14.3193C6.23582 15.3019 7.86451 15.8311 9.53611 15.8311C11.2077 15.8311 12.8364 15.3019 14.1888 14.3193C15.3591 13.469 16.2705 12.317 16.8294 10.9919C16.9738 10.6495 16.7778 10.2685 16.4244 10.1537C16.071 10.0388 15.6945 10.2341 15.5442 10.5739C15.0771 11.6296 14.3381 12.5475 13.3978 13.2307C12.2754 14.0462 10.9235 14.4854 9.53611 14.4854C8.14868 14.4854 6.79687 14.0462 5.67442 13.2307C4.73408 12.5475 3.99515 11.6296 3.52805 10.5739C3.3777 10.2341 3.00127 10.0388 2.64787 10.1537Z" fill="#3A3A3A"/>
<path d="M5.69183 10.4583L2.12827 9.82994L1.49991 13.3935" stroke="#3A3A3A" stroke-width="1.30022" stroke-linecap="round" stroke-linejoin="round"/>
</svg>
