<svg width="24" height="25" viewBox="0 0 24 25" fill="none" xmlns="http://www.w3.org/2000/svg">
<g clip-path="url(#clip0_4810_94608)">
<path d="M12 24.5498C18.6274 24.5498 24 19.1772 24 12.5498C24 5.92239 18.6274 0.549805 12 0.549805C5.37258 0.549805 0 5.92239 0 12.5498C0 19.1772 5.37258 24.5498 12 24.5498Z" fill="#3A3A3A"/>
<path d="M19.6941 7.77644C19.1281 8.02761 18.5201 8.1974 17.8809 8.27372C18.5333 7.88308 19.0331 7.26405 19.269 6.5273C18.6493 6.89536 17.9711 7.15447 17.2639 7.29338C16.6884 6.6799 15.8676 6.29688 14.9596 6.29688C13.2168 6.29688 11.8033 7.70978 11.8033 9.45367C11.8033 9.70076 11.8311 9.94182 11.8846 10.1733C9.26095 10.0414 6.93491 8.78464 5.37796 6.87499C5.1061 7.34138 4.95049 7.88365 4.95049 8.46221C4.95049 9.55729 5.50786 10.5235 6.35479 11.0895C5.85342 11.0739 5.36306 10.9386 4.92469 10.6948V10.7347C4.92469 12.2643 6.01268 13.5398 7.45692 13.8299C7.19161 13.9026 6.91319 13.9405 6.62515 13.9405C6.42149 13.9405 6.22391 13.9213 6.03089 13.8849C6.43262 15.1387 7.59847 16.0513 8.97947 16.0771C7.89906 16.924 6.5377 17.4289 5.05912 17.4289C4.80445 17.4289 4.55275 17.4137 4.30566 17.3839C5.70292 18.2798 7.36193 18.8029 9.14474 18.8029C14.951 18.8029 18.1265 13.9926 18.1265 9.82109C18.1265 9.68413 18.1235 9.5482 18.1169 9.41276C18.7356 8.96526 19.2697 8.41117 19.6941 7.77644Z" fill="#FEFEFE"/>
</g>
<defs>
<clipPath id="clip0_4810_94608">
<rect width="24" height="24" fill="white" transform="translate(0 0.549805)"/>
</clipPath>
</defs>
</svg>
